<?xml version="1.0" encoding="UTF-8"?><svg id="Ebene_2" xmlns="http://www.w3.org/2000/svg" viewBox="0 0 512 512"><defs><style>.cls-1{fill:#fff;}.cls-2{opacity:.14;}.cls-3{fill:#33252c;}</style></defs><g id="Ebene_1-2"><g><rect class="cls-3" width="512" height="512"/><g class="cls-2"><path class="cls-1" d="M141.23,146.51c31.73-32.37,70.1-48.56,115.12-48.56s83.39,16.19,115.12,48.56c31.73,32.38,48.24,71.07,49.52,116.09v72.03c0,3.01-.96,5.47-2.89,7.4s-4.4,2.9-7.4,2.9h-10.29c-3,0-5.47-.96-7.4-2.9-1.93-1.93-2.89-4.39-2.89-7.4v-72.03c0-36.87-13.08-68.38-39.23-94.54-26.16-26.15-57.67-39.23-94.54-39.23-24.02,0-46.31,6.01-66.89,18.01-20.58,12.01-36.88,28.3-48.88,48.88-12.01,20.58-18.01,42.88-18.01,66.89v72.03c0,3.01-.96,5.47-2.89,7.4-1.93,1.93-4.4,2.9-7.4,2.9h-10.29c-3.01,0-5.47-.96-7.4-2.9-1.93-1.93-2.89-4.39-2.89-7.4v-72.03c1.29-45.02,17.79-83.71,49.52-116.09Zm73.96,116.09c5.57,0,10.39,2.04,14.47,6.11,4.07,4.08,6.11,8.9,6.11,14.47v82.32c0,5.57-2.04,10.39-6.11,14.47-4.08,4.07-8.9,6.11-14.47,6.11h-30.87c-7.3,0-14.15-1.83-20.58-5.47-6.43-3.65-11.48-8.68-15.11-15.11-3.65-6.43-5.47-13.28-5.47-20.58v-41.16c0-7.29,1.82-14.15,5.47-20.58,3.64-6.43,8.68-11.47,15.11-15.11,6.43-3.64,13.28-5.47,20.58-5.47h30.87Zm-10.29,92.61v-61.74h-20.58c-1.72,0-3.44,.43-5.14,1.29-1.72,.86-3.01,2.15-3.86,3.86-.86,1.72-1.29,3.44-1.29,5.14v41.16c0,3,.96,5.47,2.9,7.4,1.93,1.93,4.39,2.89,7.4,2.89h20.58Zm123.49-92.61c11.58,0,21.32,4.08,29.26,12.22,7.93,8.15,11.9,17.8,11.9,28.94v41.16c0,7.3-1.83,14.15-5.47,20.58-3.65,6.43-8.68,11.47-15.11,15.11-6.43,3.64-13.29,5.47-20.58,5.47h-30.87c-5.58,0-10.4-2.04-14.47-6.11-4.08-4.08-6.11-8.9-6.11-14.47v-82.32c0-5.57,2.03-10.39,6.11-14.47,4.07-4.07,8.89-6.11,14.47-6.11h30.87Zm10.29,82.32v-41.16c0-2.99-.96-5.47-2.89-7.4-1.93-1.93-4.4-2.89-7.4-2.89h-20.58v61.74h20.58c2.99,0,5.47-.96,7.4-2.89s2.89-4.39,2.89-7.4Z"/></g></g></g></svg>