<svg
	xmlns="http://www.w3.org/2000/svg" viewBox="0 0 1920 1080">
	<link
		xmlns="http://www.w3.org/1999/xhtml" rel="stylesheet" href="static/assets/css/style.css" type="text/css"/>
		<defs>
			<style>.cls-1{fill:none;}.cls-2{fill:#ed4935;}.cls-3{fill:#1e1519;}.cls-4{fill:#101010;}.cls-5{fill:#e51717;} #TopCamBG, #ChatBG, #DjBG{display:none;}</style>
		</defs>
		<g id="Ebene_2" data-name="Ebene 2">
			<g id="STREAM_OBS_OVERLAY">
				<g id="MainGroup">
					<rect class="cls-1" x="0.35" width="1920" height="1080"/>
					<rect id="TopCamBG" class="cls-2" x="74.35" y="51" width="465" height="360" rx="4"/>
					<g id="DjBG">
						<path class="cls-2" d="M535.35,437h-457a4,4,0,0,0-4,4v9h465v-9A4,4,0,0,0,535.35,437Z"/>
						<path class="cls-2" d="M78.69,608.63l457-39.32a4,4,0,0,0,3.66-4V556l-465,40v8.63A4,4,0,0,0,78.69,608.63Z"/>
						<polygon class="cls-3" points="539.35 456 74.35 456 74.35 589.99 539.35 549.99 539.35 456"/>
					</g>
					<g id="ChatBG">
						<polygon id="ChatBG_Main" class="cls-3" points="539.35 650 74.35 650 74.35 970 539.35 956 539.35 650"/>
						<path id="ChatBG_Bottom" class="cls-2" d="M78.35,1022h457a4,4,0,0,0,4-4V962l-465,14v42A4,4,0,0,0,78.35,1022Z"/>
						<path id="ChatBG_Top" class="cls-2" d="M74.35,633.67V643h465V594.36a4,4,0,0,0-4.34-4L78,629.69A4,4,0,0,0,74.35,633.67ZM487.24,625a.5.5,0,0,1-.29-.11.73.73,0,0,1-.21-.26.61.61,0,0,1,.07-.65,11.91,11.91,0,0,0,2.6-3.9,9.55,9.55,0,0,1-2.75-6.65q0-4.77,4.41-8.17a18.32,18.32,0,0,1,21.26,0q4.41,3.39,4.41,8.17t-4.41,8.17A16.93,16.93,0,0,1,501.7,625a18,18,0,0,1-8-1.81A12.72,12.72,0,0,1,487.24,625Zm40.92,8.24a.63.63,0,0,1,.08.65.52.52,0,0,1-.51.36,12.56,12.56,0,0,1-6.43-1.81,18.87,18.87,0,0,1-16.42-.14,12.64,12.64,0,0,1-5.49-5.13,22.88,22.88,0,0,0,2.31.14A19,19,0,0,0,514,623.21q5.1-4.08,5.09-9.79A12.92,12.92,0,0,0,519,612a14.77,14.77,0,0,1,6.73,4.23,9.38,9.38,0,0,1-.15,13.12A12.07,12.07,0,0,0,528.16,633.23Z"/>
					</g>
					<g id="NOW_LIVE_Button" data-name="NOW LIVE Button">
						<path id="NOW_LIVE_BG" class="cls-2" d="M509.46,468.72h-113a5.71,5.71,0,0,0-5.71,5.71v57.86a5.71,5.71,0,0,0,5.71,5.71h113a5.71,5.71,0,0,0,5.71-5.71V474.43A5.71,5.71,0,0,0,509.46,468.72ZM431.34,518.3a19.33,19.33,0,0,1-12.75,5.93,20.75,20.75,0,0,1-17.08-7.09,20.68,20.68,0,0,1,0-26.65,20.76,20.76,0,0,1,17.05-7.09,19.36,19.36,0,0,1,12.77,5.93,20.61,20.61,0,0,1,0,29Z"/>
						<g id="NOW">
							<path class="cls-3" d="M452.5,493,446,476.07a.28.28,0,0,0-.28-.19H444a.29.29,0,0,0-.3.29v23.27a.29.29,0,0,0,.3.29h1.74a.29.29,0,0,0,.29-.29V482.76a.3.3,0,0,1,.58-.11l6.49,16.89a.3.3,0,0,0,.28.19h1.75a.29.29,0,0,0,.29-.29V476.17a.29.29,0,0,0-.29-.29h-1.74a.3.3,0,0,0-.3.29v16.7A.29.29,0,0,1,452.5,493Z"/>
							<path class="cls-3" d="M474.54,476.34a7.57,7.57,0,0,0-6.4,0,4.73,4.73,0,0,0-2,2.05,7.06,7.06,0,0,0-.7,3.25V494a7.06,7.06,0,0,0,.7,3.25,4.73,4.73,0,0,0,2,2.05,7.57,7.57,0,0,0,6.4,0,4.73,4.73,0,0,0,2-2.05,6.93,6.93,0,0,0,.7-3.25V481.64a6.93,6.93,0,0,0-.7-3.25A4.73,4.73,0,0,0,474.54,476.34Zm.36,17.76a4.15,4.15,0,0,1-.42,1.94,2.75,2.75,0,0,1-1.21,1.22,4.64,4.64,0,0,1-3.86,0A2.8,2.8,0,0,1,468.2,496a4.15,4.15,0,0,1-.42-1.94V481.52a4.11,4.11,0,0,1,.42-1.93,2.82,2.82,0,0,1,1.21-1.23,4.75,4.75,0,0,1,3.86,0,2.77,2.77,0,0,1,1.21,1.23,4.11,4.11,0,0,1,.42,1.93Z"/>
							<path class="cls-3" d="M501.89,476.14l-2.28,18.77a.3.3,0,0,1-.59,0l-2.89-18.79a.28.28,0,0,0-.29-.25h-1.46a.28.28,0,0,0-.29.25l-2.89,18.79a.3.3,0,0,1-.59,0l-2.28-18.77a.3.3,0,0,0-.3-.26h-1.89a.29.29,0,0,0-.29.34l3.44,23.28a.3.3,0,0,0,.3.25h2.73a.3.3,0,0,0,.3-.25l2.28-15.22a.3.3,0,0,1,.59,0l2.11,15.2a.3.3,0,0,0,.3.26h2.73a.3.3,0,0,0,.3-.25l3.44-23.28a.3.3,0,0,0-.3-.34h-1.88A.3.3,0,0,0,501.89,476.14Z"/>
						</g>
						<g id="LIVE">
							<path class="cls-3" d="M447.72,505.6h-3a.31.31,0,0,0-.3.3v23.28a.3.3,0,0,0,.3.3h9.52a.29.29,0,0,0,.3-.3v-2.84a.29.29,0,0,0-.3-.29h-5.91a.3.3,0,0,1-.29-.3V505.9A.31.31,0,0,0,447.72,505.6Z"/>
							<rect class="cls-3" x="461.98" y="505.6" width="3.61" height="23.87" rx="0.3"/>
							<path class="cls-3" d="M479.29,521.13l-2.4-15.27a.29.29,0,0,0-.29-.26h-3.18a.3.3,0,0,0-.29.36l4.5,23.28a.3.3,0,0,0,.29.24h3.32a.3.3,0,0,0,.29-.24L486,506a.29.29,0,0,0-.29-.36h-3.18a.29.29,0,0,0-.29.26l-2.4,15.27A.29.29,0,0,1,479.29,521.13Z"/>
							<path class="cls-3" d="M503.7,508.77V505.9a.31.31,0,0,0-.3-.3h-9.85a.31.31,0,0,0-.3.3v23.28a.3.3,0,0,0,.3.3h9.85a.3.3,0,0,0,.3-.3v-2.87a.31.31,0,0,0-.3-.3h-6.24a.3.3,0,0,1-.3-.29v-6.08a.3.3,0,0,1,.3-.29h5.42a.3.3,0,0,0,.29-.3V516.2a.29.29,0,0,0-.29-.3h-5.42a.3.3,0,0,1-.3-.3v-6.23a.3.3,0,0,1,.3-.3h6.24A.3.3,0,0,0,503.7,508.77Z"/>
						</g>
						<path id="BlackCicle" class="cls-4" d="M405.14,491.9A15.93,15.93,0,0,1,415.63,487a17.08,17.08,0,0,1,14.07,5.85,17,17,0,0,1,0,21.88,17.1,17.1,0,0,1-14.09,5.85,16,16,0,0,1-10.47-4.88,17,17,0,0,1,0-23.83Zm4.83,17a8.56,8.56,0,0,0,8.36,3.49,7.52,7.52,0,0,0,3.68-1.53,8.7,8.7,0,0,0,3.5-8.44,7.7,7.7,0,0,0-1.51-3.7,8.58,8.58,0,0,0-8.4-3.53,7.51,7.51,0,0,0-3.67,1.52,8.72,8.72,0,0,0-3.5,8.47A7.71,7.71,0,0,0,410,508.93Z"/>
						<path id="RedCicle" class="cls-5" d="M411.29,499.66a7,7,0,0,1,6.78-2.83,6.14,6.14,0,0,1,3,1.27,7.08,7.08,0,0,1,2.79,6.83,6.19,6.19,0,0,1-1.25,3.05,7,7,0,0,1-6.77,2.83,6.14,6.14,0,0,1-3-1.27A7.08,7.08,0,0,1,410,502.7,6.26,6.26,0,0,1,411.29,499.66Z"/>
					</g>
					<rect id="FULLHD_Wrapper" class="cls-1" y="0.41" width="1920" height="1080"/>
				</g>
			</g>
		</g>
	</svg>