<?xml version="1.0" encoding="UTF-8"?><svg id="Ebene_2" xmlns="http://www.w3.org/2000/svg" viewBox="0 0 156 129"><defs><style>.cls-1{fill:#a5193b;}</style></defs><g id="Ebene_1-2"><path class="cls-1" d="M77.09,48.96C44.49,48.96,15.5,29.02,0,4.55c.72,2.03,8.59,22.6,39.41,39.95,0,0,10.38,8.19,10.13,23.16,0,0,.53,6.38-.94,15.8,0,0-8.95,17.94-.39,21.22,0,0,17.38,5.9,8.16-23.36,0,0-2.23-4.8,6.22-9.87,0,0,.66-2.35,3.38,6.02,0,0,1.63,24.89-2.87,36.59,0,0-3.99,14.67,4.9,14.93,0,0,6.5,.78,6.92-13.4,0,0-2.8-45.63-.9-49.72,0,0,9.1-6.83,9.39,3.24,0,0-7.12,19.26,1.45,20.72,0,0,8.51,3.23,5.47-14.01,0,0-4.41-11.37-1.37-13.65,0,0,3.61-1.67,3.45,3.65,0,0-2.02,8.22,.31,9.47,0,0,5.8,4.31,3.23-8.78,0,0-3.1-10.56,9.05-17.3,0,0,40.46-21.25,50.98-49.23h0c-14.72,26.96-44.32,48.96-78.9,48.96Z"/></g></svg>