<?xml version="1.0" encoding="utf-8"?>
<!-- Generator: Adobe Illustrator 27.0.0, SVG Export Plug-In . SVG Version: 6.00 Build 0)  -->
<svg version="1.1" xmlns="http://www.w3.org/2000/svg" xmlns:xlink="http://www.w3.org/1999/xlink" x="0px" y="0px"
	 viewBox="0 0 3700 900" style="enable-background:new 0 0 3700 900;" xml:space="preserve">
<style type="text/css">
	.st0{display:none;}
	.st1{display:inline;}
	.st2{fill:#1E1519;}
	.st3{display:inline;fill:#191818;stroke:#191818;stroke-width:5.3522;stroke-linecap:round;stroke-linejoin:round;}
	.st4{display:inline;fill:#A5193B;}
	.st5{fill:#ED4935;}
	.st6{fill:#140E11;}
	.st7{filter:url(#Adobe_OpacityMaskFilter);}
	.st8{opacity:0.26;mask:url(#SVGID_1_);fill:#ED4935;}
	.st9{display:inline;fill:#191818;stroke:#191818;stroke-width:5.3483;stroke-linecap:round;stroke-linejoin:round;}
	.st10{filter:url(#Adobe_OpacityMaskFilter_00000029761105668083648710000010647339569438267788_);}
	.st11{opacity:0.26;mask:url(#zackenMD_00000116938219235996508670000016460040306153840775_);fill:#ED4935;}
</style>
<g id="Ebene_1">
	<g id="Ebene_2_00000113337719801578703230000008175421946486118285_" class="st0">
		<g id="Ebene_1-2_00000033360058936885899240000006138302671058198930_" class="st1">
			<rect x="353.4" y="3830.7" class="st2" width="3694.4" height="902.7"/>
			<g class="st0">
				<path class="st3" d="M2318,4268.7c-0.5-1.7-20.1,51.2-32.3,72.2c-17.3,28.2-49.9,56.3-80.9,51.2c-24.3-4-49.1-27-61.7-57.3
					c-8.5-20.3-9.9-40.2-3.9-54.7l0.1-0.3l85.5-232l27-71.5c0.1-0.3,0.6-1.6,1.3-3.9h-23.6l-24.2,63.9L2120,4268
					c-9.1,22.3-7.6,51.2,4.1,79.2c15.9,38.3,46.6,66.4,78,71.5c39.7,6.5,79.3-26.2,100.8-61.6l0.1-0.2c6.2-10.5,17.7-34.8,26.8-56.4
					l5.2-12.2l-2.1-39.6L2318,4268.7z"/>
				<path class="st4" d="M2116.2,4329.2c0,0,7.2,40.6,43.6,72.7c8.9,6.9,13,20.5,9.9,33.1c2.1,10.1,2.2,20.8,0.2,30.9
					c0,0-15.2,30.3-3.6,37.6c0,0,23.7,13.6,14.9-40c0,0-2.5-8.9,10.2-16.4c0,0,1.3-4,3.9,11.3c0,0-1.3,44.5-9.3,64.5
					c0,0-7.8,25.4,4.8,27.4c0,0,9.1,2.5,11.7-22.6c0,0,2.6-81.6,5.9-88.5c0,0,13.9-10.5,12.8,7.4c0,0-12.8,33-0.9,37.1
					c0,0,11.6,7.3,9.7-23.9c0,0-4.6-21,0-24.5c0,0,5.3-2.3,4.3,7.1c0,0-4,14.3-0.9,16.9c0,0,7.6,8.7,5.8-15c0,0-3-28.2,13.8-34
					c0,0,41.6-24.1,64-67.3c2.6-5.7,3.4-12.5,2-18.8c0,0-37.9,60.2-73.2,74.3c-28.4,11.3-55.2,15.4-83-10.5c0,0-30.2-28.4-46.7-65.2
					C2116,4325,2116.1,4327.1,2116.2,4329.2z"/>
			</g>
			<path class="st5" d="M844.5,4617"/>
		</g>
	</g>
	<polygon class="st6" points="4032.3,4382.9 4025.7,4250.5 4047.8,4183.1 4047.8,3874.2 3922,3990 3914.6,3834.5 3844.5,4094.8 
		3788.1,4051.5 3757.6,3830.7 3703.7,3830.7 3554.6,4153.4 3511.3,4356 3521.2,4063.6 3306.1,4356.2 3197.4,4208.3 3205.2,4437.6 
		3171.2,4278.7 3032.6,3970.9 2988.2,4198.8 2975.9,4208.2 2975.9,4025.7 2958.3,4025.7 2934.4,4198.8 2890.2,4232.7 2835.2,4028.7 
		2829.4,4150.5 2724.6,4054.1 2702.7,4216.5 2748.1,4354.8 2742.9,4458.6 2674.4,4387.5 2674.4,4257.5 2650.5,4190 2464.6,4382.9 
		2458,4250.5 2515.9,4074.2 2488,3867 2354.3,3990 2346.9,3834.5 2276.8,4094.8 2220.4,4051.5 2189.9,3830.7 2136,3830.7 
		1986.9,4153.4 1943.6,4356 1953.5,4063.6 1738.4,4356.2 1629.7,4208.3 1637.5,4437.6 1603.6,4278.7 1464.9,3970.9 1454.2,4025.7 
		1421.8,4192.1 1420.9,4198.8 1376.7,4232.7 1376.6,4232.5 1321.7,4028.7 1315.9,4150.5 1211.1,4054.1 1189.2,4216.5 1234.6,4354.8 
		1229.4,4458.6 1160.9,4387.5 1160.9,4257.5 1137,4190 951.1,4382.9 944.5,4250.5 1002.4,4074.2 974.5,3867 840.8,3990 
		833.4,3834.5 763.3,4094.8 706.9,4051.5 676.4,3830.7 622.5,3830.7 473.4,4153.4 430.1,4356 440,4063.6 353.4,4181.4 353.4,4733.4 
		4047.8,4733.4 4047.8,4366.8 	"/>
	<defs>
		<filter id="Adobe_OpacityMaskFilter" filterUnits="userSpaceOnUse" x="352.4" y="3981.8" width="3694.4" height="711.7">
			<feFlood  style="flood-color:white;flood-opacity:1" result="back"/>
			<feBlend  in="SourceGraphic" in2="back" mode="normal"/>
		</filter>
	</defs>
	<mask maskUnits="userSpaceOnUse" x="352.4" y="3981.8" width="3694.4" height="711.7" id="SVGID_1_">
		<g class="st7">
		</g>
	</mask>
	<polygon class="st8" points="4046.8,4135.5 4046.8,4693.5 352.4,4693.5 352.4,4283.6 356.5,4298.7 391.3,4272 426.3,4092.3 
		535.7,4335 562.4,4460.2 556.3,4279.5 642,4396 811.6,4165.4 803.7,4396 837.9,4236.2 955.4,3981.8 997.9,3981.8 1022,4155.9 
		1066.4,4190 1121.7,3984.8 1127.5,4107.3 1232.9,4010.4 1254.9,4173.7 1209.3,4312.7 1214.5,4417.1 1361.1,4265.1 1379.9,4318.3 
		1379.9,4420.7 1433.9,4476.8 1438,4395 1402.2,4286 1419.5,4157.9 1502.1,4233.9 1506.7,4137.9 1550,4298.5 1550,4298.7 
		1584.9,4272 1585.6,4266.7 1611.2,4135.5 1619.6,4092.3 1728.9,4335 1755.7,4460.2 1749.5,4279.5 1835.2,4396 2004.8,4165.4 
		1997,4396 2031.1,4236.2 2148.7,3981.8 2191.1,3981.8 2215.2,4155.9 2259.7,4190 2315,3984.8 2320.8,4107.3 2426.2,4010.4 
		2448.2,4173.7 2402.5,4312.7 2407.7,4417.1 2554.3,4265.1 2573.1,4318.3 2573.1,4420.7 2627.2,4476.8 2631.3,4395 2595.5,4286 
		2612.7,4157.9 2695.4,4233.9 2699.9,4137.9 2743.3,4298.7 2778.1,4272 2797,4135.5 2810.9,4135.5 2810.9,4279.4 2820.5,4272 
		2855.5,4092.3 2964.9,4335 2991.6,4460.2 2985.5,4279.5 3071.2,4396 3240.8,4165.4 3232.9,4396 3267.1,4236.2 3384.6,3981.8 
		3427.1,3981.8 3451.2,4155.9 3495.6,4190 3550.9,3984.8 3556.7,4107.3 3662.1,4010.4 3684.1,4173.7 3638.5,4312.7 3643.7,4417.1 
		3790.3,4265.1 3809.1,4318.3 3809.1,4420.7 3863.1,4476.8 3867.2,4395 3831.4,4286 3848.7,4157.9 3931.3,4233.9 3935.9,4137.9 
		3979.2,4298.7 4014.1,4272 4032.9,4135.5 	"/>
	<polygon class="st5" points="4047.8,4477.4 4047.8,4733.4 353.4,4733.4 353.4,4290.7 371.1,4290.7 457.6,4477.8 482.7,4595.3 
		476.9,4425.8 604.2,4598.8 604.2,4604.1 632.1,4633.1 634.8,4578.8 611.1,4506.7 622.5,4421.8 677.3,4472.2 680.3,4408.5 
		709,4515.1 732.1,4497.4 744.6,4407 753.8,4407 753.8,4480.5 884.3,4319.4 877.2,4508.3 908,4377.4 1028.7,4126.1 1074.1,4311.6 
		1114.2,4339.5 1160.2,4152.7 1169.3,4271.8 1208.7,4239 1246,4187.9 1284.3,4326.2 1243.1,4440.1 1247.8,4525.6 1339.1,4439.6 
		1385.5,4300.6 1470.6,4477.8 1495.7,4595.3 1489.9,4425.8 1617.2,4598.8 1617.2,4604.1 1645.1,4633.1 1647.8,4578.8 1624.1,4506.7 
		1635.5,4421.8 1690.3,4472.2 1693.3,4408.5 1722,4515.1 1745.1,4497.4 1757.6,4407 1766.8,4407 1766.8,4480.5 1897.3,4319.4 
		1890.2,4508.3 1921,4377.4 2035.7,4177.1 2087.1,4311.6 2127.2,4339.5 2157,4239 2169.5,4195 2180.6,4239 2182.3,4271.8 
		2221.7,4239 2256,4207.8 2284.4,4239 2297.3,4326.2 2256.1,4440.1 2260.8,4525.6 2393.1,4401.1 2410,4444.6 2410,4516.9 
		2454.1,4476.3 2464.5,4553.5 2442.9,4619.3 2445.4,4668.6 2470.8,4642.3 2470.8,4637.5 2586.7,4479.9 2581.5,4634.3 2604.3,4527.3 
		2681.5,4360.3 2681.5,4290.7 2699.2,4290.7 2785.7,4477.8 2810.8,4595.3 2805,4425.8 2932.3,4598.8 2932.3,4604.1 2960.2,4633.1 
		2962.9,4578.8 2939.2,4506.7 2950.6,4421.8 3005.4,4472.2 3008.4,4408.5 3037.1,4515.1 3060.2,4497.4 3072.7,4407 3081.9,4407 
		3081.9,4480.5 3212.3,4319.4 3205.3,4508.3 3236.1,4377.4 3345.2,4164.9 3442.3,4339.5 3495.7,4239 3497.4,4271.8 3616.8,4154.6 
		3612.4,4326.2 3571.2,4440.1 3575.9,4525.6 3708.1,4401.1 3725.1,4444.6 3725.1,4516.9 3769.2,4476.3 3779.6,4553.5 3758,4619.3 
		3760.5,4668.6 3785.9,4642.3 3785.9,4637.5 3901.8,4479.9 3896.5,4634.3 3919.4,4527.3 3998.1,4356.9 4042.7,4473.5 	"/>
	<g id="Ebene_2_00000143585848804626654200000012818578180256603832_">
		<g id="Ebene_1-2_00000052097479443766582770000003219768453910695047_">
			<g class="st0">
				<path class="st9" d="M1967.6,436.6c-0.5-1.7-20.1,51.1-32.4,72c-17.3,28.1-50,56.1-81,51c-24.4-4-49.2-26.9-61.8-57.1
					c-8.5-20.2-9.9-40.1-3.9-54.5l0.1-0.3l85.7-231.3l27-71.2c0.1-0.2,0.6-1.6,1.3-3.9H1879l-24.2,63.7l-85.6,231
					c-9.1,22.3-7.6,51,4.1,79c16,38.2,46.6,66.2,78.1,71.3c39.8,6.5,79.4-26.2,101-61.4l0.1-0.2c6.2-10.5,17.7-34.7,26.8-56.3
					l5.2-12.2l-2.1-39.5L1967.6,436.6z"/>
				<path class="st4" d="M1765.5,497c0,0,7.2,40.4,43.7,72.5c9,6.9,13,20.5,9.9,33c2.1,10.1,2.2,20.7,0.2,30.8
					c0,0-15.2,30.2-3.6,37.5c0,0,23.8,13.6,14.9-39.9c0,0-2.5-8.9,10.2-16.4c0,0,1.3-4,3.9,11.2c0,0-1.3,44.4-9.3,64.3
					c0,0-7.8,25.3,4.8,27.3c0,0,9.1,2.5,11.7-22.5c0,0,2.6-81.4,5.9-88.3c0,0,13.9-10.5,12.8,7.4c0,0-12.8,32.9-0.9,37
					c0,0,11.6,7.2,9.8-23.9c0,0-4.6-20.9,0-24.4c0,0,5.3-2.3,4.4,7.1c0,0-4,14.2-0.9,16.8c0,0,7.6,8.7,5.8-15c0,0-3-28.1,13.8-33.9
					c0,0,41.7-24,64.1-67.1c2.6-5.7,3.4-12.4,2-18.8c0,0-38,60-73.3,74c-28.4,11.2-55.2,15.4-83.1-10.4c0,0-30.2-28.3-46.8-65
					C1765.3,492.8,1765.3,494.9,1765.5,497z"/>
			</g>
		</g>
	</g>
</g>
<g id="Ebene_2">
	<rect id="BG" x="0" y="0" class="st2" width="3700" height="900"/>
	<polygon id="zackenBG" class="st6" points="3684.5,550.5 3677.8,418.5 3700,351.4 3700,43.4 3574,158.8 3566.6,3.8 3496.4,263.3 
		3439.9,220.1 3409.3,0 3355.4,0 3206,321.7 3162.7,523.8 3172.6,232.3 2957.2,523.9 2848.3,376.5 2856.1,605 2822.1,446.6 
		2683.2,139.7 2638.8,367 2626.5,376.4 2626.5,194.4 2608.9,194.4 2584.9,367 2540.6,400.8 2485.6,197.4 2479.8,318.9 2374.8,222.8 
		2352.9,384.7 2398.4,522.5 2393.2,626 2324.5,555.1 2324.5,425.5 2300.6,358.2 2114.4,550.5 2107.8,418.5 2165.8,242.7 
		2137.8,36.2 2003.9,158.8 1996.5,3.8 1926.3,263.3 1869.8,220.1 1839.3,0 1785.3,0 1636,321.7 1592.6,523.8 1602.5,232.3 
		1387.1,523.9 1278.3,376.5 1286.1,605 1252.1,446.6 1113.2,139.7 1102.5,194.4 1070,360.4 1069.1,367 1024.8,400.8 1024.8,400.6 
		969.8,197.4 964,318.9 859,222.8 837.1,384.7 882.5,522.5 877.4,626 808.7,555.1 808.7,425.5 784.8,358.2 598.6,550.5 592,418.5 
		650,242.7 622,36.2 488.1,158.8 480.7,3.8 410.5,263.3 354,220.1 323.4,0 269.5,0 120.2,321.7 76.8,523.8 86.7,232.3 0,349.7 
		0,900 3700,900 3700,534.5 	"/>
	<defs>
		
			<filter id="Adobe_OpacityMaskFilter_00000096050805674872072410000014698552229674542980_" filterUnits="userSpaceOnUse" x="0" y="295.5" width="3700" height="604.5">
			<feFlood  style="flood-color:white;flood-opacity:1" result="back"/>
			<feBlend  in="SourceGraphic" in2="back" mode="normal"/>
		</filter>
	</defs>
	
		<mask maskUnits="userSpaceOnUse" x="0" y="295.5" width="3700" height="604.5" id="zackenMD_00000171700672498209877050000017126296439550558901_">
		<g style="filter:url(#Adobe_OpacityMaskFilter_00000096050805674872072410000014698552229674542980_);">
		</g>
	</mask>
	
		<polygon id="zackenMD" style="opacity:0.26;mask:url(#zackenMD_00000171700672498209877050000017126296439550558901_);fill:#ED4935;" points="
		3700,449.2 3700,900 0,900 0,597.3 4.1,612.4 39,585.7 74,406 183.5,648.7 210.4,773.9 204.2,593.2 290,709.7 459.9,479.1 
		452,709.7 486.2,549.9 603.9,295.5 646.5,295.5 670.6,469.6 715.1,503.7 770.5,298.5 776.3,421 881.9,324.1 903.9,487.4 
		858.2,626.4 863.4,730.8 1010.2,578.8 1029,632 1029,734.4 1083.2,790.5 1087.3,708.6 1051.4,599.7 1068.7,471.6 1151.5,547.6 
		1156,451.6 1199.4,612.2 1199.4,612.4 1234.4,585.7 1235.1,580.4 1260.7,449.2 1269.1,406 1378.6,648.7 1405.4,773.9 1399.3,593.2 
		1485.1,709.7 1654.9,479.1 1647.1,709.7 1681.3,549.9 1799,295.5 1841.5,295.5 1865.6,469.6 1910.2,503.7 1965.5,298.5 1971.4,421 
		2076.9,324.1 2099,487.4 2053.2,626.4 2058.5,730.8 2205.3,578.8 2224.1,632 2224.1,734.4 2278.2,790.5 2282.3,708.6 2246.5,599.7 
		2263.7,471.6 2346.5,547.6 2351.1,451.6 2394.5,612.4 2429.4,585.7 2448.3,449.2 2462.2,449.2 2462.2,593.1 2471.9,585.7 
		2506.9,406 2616.4,648.7 2643.2,773.9 2637.1,593.2 2722.9,709.7 2892.7,479.1 2884.9,709.7 2919.1,549.9 3036.8,295.5 
		3079.4,295.5 3103.5,469.6 3148,503.7 3203.4,298.5 3209.2,421 3314.8,324.1 3336.8,487.4 3291.1,626.4 3296.3,730.8 3443.1,578.8 
		3461.9,632 3461.9,734.4 3516,790.5 3520.1,708.6 3484.3,599.7 3501.6,471.6 3584.3,547.6 3588.9,451.6 3632.3,612.4 3667.2,585.7 
		3686.1,449.2 	"/>
	<polygon id="zackenFG" class="st5" points="3700,645.6 3700,902.7 0,902.7 0,458 17.7,458 104.3,646 129.5,764.1 123.7,593.7 
		251.2,767.6 251.2,772.9 279.2,802 281.9,747.5 258.1,675 269.6,589.8 324.4,640.3 327.4,576.4 356.2,683.4 379.3,665.7 
		391.8,574.8 401,574.8 401,648.7 531.7,486.9 524.6,676.6 555.4,545.1 676.3,292.7 721.8,479 762,507.1 808,319.4 817.2,439.1 
		856.6,406.1 893.9,354.8 932.3,493.7 891.1,608.1 895.8,694 987.2,607.7 1033.7,467.9 1118.9,646 1144,764.1 1138.3,593.7 
		1265.7,767.6 1265.7,772.9 1293.7,802 1296.4,747.5 1272.6,675 1284.1,589.8 1338.9,640.3 1342,576.4 1370.7,683.4 1393.8,665.7 
		1406.4,574.8 1415.5,574.8 1415.5,648.7 1546.2,486.9 1539.1,676.6 1570,545.1 1684.8,343.9 1736.3,479 1776.5,507.1 1806.4,406.1 
		1818.9,361.9 1830,406.1 1831.7,439.1 1871.1,406.1 1905.5,374.8 1933.9,406.1 1946.8,493.7 1905.6,608.1 1910.3,694 2042.8,568.9 
		2059.7,612.7 2059.7,685.2 2103.9,644.5 2114.3,722.1 2092.7,788.1 2095.2,837.7 2120.6,811.2 2120.6,806.4 2236.7,648.1 
		2231.4,803.2 2254.3,695.7 2331.6,528 2331.6,458 2349.3,458 2435.9,646 2461.1,764.1 2455.3,593.7 2582.8,767.6 2582.8,772.9 
		2610.8,802 2613.5,747.5 2589.7,675 2601.2,589.8 2656,640.3 2659,576.4 2687.8,683.4 2710.9,665.7 2723.4,574.8 2732.6,574.8 
		2732.6,648.7 2863.3,486.9 2856.2,676.6 2887.1,545.1 2996.3,331.7 3093.6,507.1 3147.1,406.1 3148.8,439.1 3268.3,321.4 
		3263.9,493.7 3222.7,608.1 3227.4,694 3359.8,568.9 3376.8,612.7 3376.8,685.2 3421,644.5 3431.4,722.1 3409.8,788.1 3412.2,837.7 
		3437.7,811.2 3437.7,806.4 3553.8,648.1 3548.5,803.2 3571.4,695.7 3650.3,524.5 3694.9,641.6 	"/>
</g>
</svg>
