<?xml version="1.0" encoding="utf-8"?>
<!-- Generator: Adobe Illustrator 26.3.1, SVG Export Plug-In . SVG Version: 6.00 Build 0)  -->
<svg version="1.1" id="Ebene_1" xmlns="http://www.w3.org/2000/svg" xmlns:xlink="http://www.w3.org/1999/xlink" x="0px" y="0px"
	 viewBox="0 0 2560 720" style="enable-background:new 0 0 2560 720;" xml:space="preserve">
<style type="text/css">
	.st0{display:none;fill:#191818;stroke:#191818;stroke-width:4.78;stroke-linecap:round;stroke-linejoin:round;}
	.st1{display:none;fill:#A5193B;}
	.st2{fill:#1E1519;}
	.st3{display:none;fill:#ED4935;}
</style>
<g id="Ebene_2_00000073706722384502580760000012256645673341746328_">
	<g id="Ebene_1-2">
		<path class="st0" d="M757.4,349.3c-0.5-1.4-20.1,40.8-32.3,57.6c-17.3,22.5-49.9,44.9-80.9,40.8c-24.3-3.2-49.1-21.5-61.7-45.7
			c-8.5-16.2-9.9-32.1-3.9-43.6l0.1-0.2l85.5-185.1l27-57c0.1-0.2,0.6-1.3,1.3-3.1H669l-24.2,51l-85.4,184.8
			c-9.1,17.8-7.6,40.8,4,63.2c16,30.5,46.6,52.9,78,57.1c39.7,5.2,79.3-20.9,100.8-49.1l0.1-0.2c6.2-8.4,17.7-27.7,26.8-45l5.2-9.8
			l-2.1-31.6L757.4,349.3z"/>
		<path class="st1" d="M555.6,397.6c0,0,7.2,32.4,43.6,58c8.9,5.5,13,16.4,9.9,26.4c2.1,8.1,2.2,16.6,0.2,24.7c0,0-15.2,24.2-3.6,30
			c0,0,23.7,10.9,14.9-31.9c0,0-2.5-7.1,10.2-13.1c0,0,1.3-3.2,3.9,9c0,0-1.3,35.5-9.3,51.5c0,0-7.8,20.2,4.8,21.9
			c0,0,9.1,2,11.7-18c0,0,2.6-65.1,5.9-70.6c0,0,13.8-8.4,12.8,5.9c0,0-12.8,26.3-0.9,29.6c0,0,11.6,5.8,9.7-19.1
			c0,0-4.6-16.8,0-19.5c0,0,5.3-1.9,4.3,5.7c0,0-4,11.4-0.9,13.5c0,0,7.6,6.9,5.8-12c0,0-3-22.5,13.8-27.1c0,0,41.6-19.2,64-53.6
			c2.6-4.5,3.4-9.9,2-15c0,0-37.9,48-73.2,59.2c-28.4,9-55.2,12.3-83-8.4c0,0-30.2-22.7-46.7-52
			C555.4,394.3,555.5,395.9,555.6,397.6z"/>
		<g>
			<polygon class="st2" points="39.4,293.6 69.8,85.4 185.4,357.3 212.5,484 206.3,301.2 293,419.1 464.5,185.8 456.6,419 
				491.2,257.4 610.1,0 0,0 0,324.6 			"/>
			<polygon class="st2" points="653,0 677.4,176.1 722.4,210.6 778.3,3 784.2,127 890.8,28.9 913.1,194.2 866.9,334.8 872.2,440.4 
				1020.5,286.6 1039.5,340.4 1039.5,444.1 1094.2,500.8 1098.3,418 1062.1,307.8 1079.6,178.2 1163.2,255.1 1167.8,157.9 
				1211.6,320.6 1246.9,293.6 1280,122.2 1280,0 			"/>
		</g>
		<polygon class="st3" points="1280,122.2 1246.9,293.6 1211.6,320.6 1167.8,157.9 1163.2,255.1 1079.6,178.2 1062.1,307.8 
			1098.3,418 1094.2,500.8 1039.5,444.1 1039.5,340.4 1020.5,286.6 872.2,440.4 866.9,334.8 913.1,194.2 890.8,28.9 784.2,127 
			778.3,3 722.4,210.6 677.4,176.1 653,0 610.1,0 491.2,257.4 456.6,419 464.5,185.8 293,419.1 206.3,301.2 212.5,484 185.4,357.3 
			69.8,85.4 39.4,293.6 4.1,320.6 0,305.4 0,720 289.5,720 343.5,720 963,720 1039.5,720 1280,720 		"/>
	</g>
</g>
<g id="Ebene_2_00000087383910883095996350000006834626755507734706_">
	<g id="Ebene_1-2_00000088842727998223795230000009759565504111580309_">
		<path class="st0" d="M1787.7,333.4l-2.1,31.6l5.2,9.8c9.1,17.3,20.6,36.6,26.8,45l0.1,0.2c21.6,28.2,61.1,54.4,100.8,49.1
			c31.4-4.1,62-26.5,78-57.1c11.7-22.4,13.2-45.4,4-63.2L1915.2,164l-24.2-51h-23.6c0.7,1.8,1.2,2.9,1.3,3.1l27,57l85.5,185.1
			l0.1,0.2c6,11.5,4.6,27.4-3.9,43.6c-12.6,24.1-37.4,42.5-61.7,45.7c-31,4.1-63.6-18.3-80.9-40.8c-12.2-16.8-31.8-58.9-32.3-57.6
			L1787.7,333.4z"/>
		<path class="st1" d="M2004.5,392.6c-16.5,29.3-46.7,52-46.7,52c-27.8,20.7-54.6,17.4-83,8.4c-35.3-11.2-73.2-59.2-73.2-59.2
			c-1.4,5.1-0.6,10.5,2,15c22.4,34.5,64,53.6,64,53.6c16.8,4.6,13.8,27.1,13.8,27.1c-1.8,18.9,5.8,12,5.8,12
			c3.1-2.1-0.9-13.5-0.9-13.5c-1-7.5,4.3-5.7,4.3-5.7c4.6,2.8,0,19.5,0,19.5c-1.8,24.9,9.7,19.1,9.7,19.1
			c11.9-3.3-0.9-29.6-0.9-29.6c-1-14.3,12.8-5.9,12.8-5.9c3.3,5.5,5.9,70.6,5.9,70.6c2.6,20,11.7,18,11.7,18
			c12.5-1.6,4.8-21.9,4.8-21.9c-8.1-15.9-9.3-51.5-9.3-51.5c2.6-12.2,3.9-9,3.9-9c12.7,6,10.2,13.1,10.2,13.1
			c-8.8,42.8,14.9,31.9,14.9,31.9c11.6-5.8-3.6-30-3.6-30c-2-8.1-2-16.6,0.2-24.7c-3.1-10,1-20.9,9.9-26.4
			c36.4-25.6,43.6-58,43.6-58C2004.5,395.9,2004.6,394.3,2004.5,392.6z"/>
		<g>
			<polygon class="st2" points="2520.6,293.6 2490.2,85.4 2374.6,357.3 2347.5,484 2353.7,301.2 2267,419.1 2095.5,185.8 
				2103.4,419 2068.8,257.4 1949.9,0 2560,0 2560,324.6 			"/>
			<polygon class="st2" points="1907,0 1882.6,176.1 1837.6,210.6 1781.7,3 1775.8,127 1669.2,28.9 1646.9,194.2 1693.1,334.8 
				1687.8,440.4 1539.5,286.6 1520.5,340.4 1520.5,444.1 1465.8,500.8 1461.7,418 1497.9,307.8 1480.4,178.2 1396.8,255.1 
				1392.2,157.9 1348.4,320.6 1313.1,293.6 1280,122.2 1280,0 			"/>
		</g>
		<polygon class="st3" points="1280,122.2 1313.1,293.6 1348.4,320.6 1392.2,157.9 1396.8,255.1 1480.4,178.2 1497.9,307.8 
			1461.7,418 1465.8,500.8 1520.5,444.1 1520.5,340.4 1539.5,286.6 1687.8,440.4 1693.1,334.8 1646.9,194.2 1669.2,28.9 1775.8,127 
			1781.7,3 1837.6,210.6 1882.6,176.1 1907,0 1949.9,0 2068.8,257.4 2103.4,419 2095.5,185.8 2267,419.1 2353.7,301.2 2347.5,484 
			2374.6,357.3 2490.2,85.4 2520.6,293.6 2555.9,320.6 2560,305.4 2560,720 2270.5,720 2216.5,720 1597,720 1520.5,720 1280,720 		
			"/>
	</g>
</g>
</svg>
